<svg height="517" viewBox="0 0 1692 517" width="1692" xmlns="http://www.w3.org/2000/svg" xmlns:xlink="http://www.w3.org/1999/xlink"><clipPath id="a"><path d="m159 5841h1692v517h-1692z"/></clipPath><linearGradient id="b" gradientUnits="objectBoundingBox" x1=".404" x2=".411" y1="-.343" y2=".819"><stop offset="0" stop-color="#ce3737"/><stop offset="1" stop-color="#d75357"/></linearGradient><g clip-path="url(#a)" transform="translate(-159 -5841)"><path d="m-52.41 1302c62.21-79.011 157.84-232.31 251.61-305.49 347.561-270.678 504.052 31.946 1066.283-204.393 356.452-149.838 405.56 239.187 393.783 508.735z" fill="#d03439" transform="translate(190 5091)"/><path d="m-113.148 1297.79c-41.4-185.711 96.459-247.977 228.027-344.267 255.548-186.624 370.256-9.856 783.643-172.8s264.57 517.071 264.57 517.071z" fill="#fff" opacity=".05" transform="translate(515.633 5267.644)"/><path d="m1181.684 1297.789c41.4-185.71-96.459-247.977-228.027-344.266-255.548-186.623-370.257-9.856-783.643-172.804s-264.57 517.07-264.57 517.07z" fill="url(#b)" transform="translate(633.633 5267.644)"/></g></svg>