<svg height="638.601" viewBox="0 0 494.836 638.601" width="494.836" xmlns="http://www.w3.org/2000/svg" xmlns:xlink="http://www.w3.org/1999/xlink"><clipPath id="a"><path d="m175.536 0c-176.345 0 67.064 208.923-88.593 319.3s-87.752 319.3 88.593 319.3 319.3-142.956 319.3-319.3-142.955-319.3-319.3-319.3z"/></clipPath><linearGradient id="b" gradientUnits="objectBoundingBox" x1=".5" x2=".5" y1="1"><stop offset="0" stop-color="#f7dfdf"/><stop offset="1" stop-color="#d75357" stop-opacity="0"/></linearGradient><path d="m175.536 0c-176.345 0 67.064 208.923-88.593 319.3s-87.752 319.3 88.593 319.3 319.3-142.956 319.3-319.3-142.955-319.3-319.3-319.3z" fill="#d03439"/><g clip-path="url(#a)"><path d="m319.3 638.6c176.345 0-67.066-208.922 88.593-319.3s87.752-319.3-88.593-319.3-319.3 142.956-319.3 319.3 142.956 319.3 319.3 319.3z" fill="url(#b)" opacity=".3"/></g></svg>