<svg height="638.601" viewBox="0 0 494.836 638.601" width="494.836" xmlns="http://www.w3.org/2000/svg" xmlns:xlink="http://www.w3.org/1999/xlink"><clipPath id="a"><path d="m319.3 0c176.345 0-67.066 208.923 88.593 319.3s87.752 319.3-88.593 319.3-319.3-142.955-319.3-319.3 142.956-319.3 319.3-319.3z" transform="translate(297.858 1341)"/></clipPath><linearGradient id="b" gradientTransform="matrix(-.88027084 0 0 -1.136014 792.69415 1979.6005)" gradientUnits="userSpaceOnUse" x1="281.07048" x2="281.07048" y1="0" y2="562.14096"><stop offset="0" stop-color="#f7dfdf"/><stop offset="1" stop-color="#d75357"/></linearGradient><path d="m319.3 0c176.345 0-67.066 208.923 88.593 319.3s87.752 319.3-88.593 319.3-319.3-142.955-319.3-319.3 142.956-319.3 319.3-319.3z" fill="#d03439"/><g clip-path="url(#a)" transform="translate(-297.858 -1341)"><path d="m473.39415 1979.6005c-176.345 0 67.066-208.923-88.593-319.3s-87.752-319.3 88.593-319.3 319.3 142.955 319.3 319.3-142.956 319.3-319.3 319.3z" fill="url(#b)" opacity=".3"/></g></svg>