<?xml version="1.0" encoding="UTF-8" standalone="no"?>
<svg
   xmlns:dc="http://purl.org/dc/elements/1.1/"
   xmlns:cc="http://creativecommons.org/ns#"
   xmlns:rdf="http://www.w3.org/1999/02/22-rdf-syntax-ns#"
   xmlns:svg="http://www.w3.org/2000/svg"
   xmlns="http://www.w3.org/2000/svg"
   xmlns:sodipodi="http://sodipodi.sourceforge.net/DTD/sodipodi-0.dtd"
   xmlns:inkscape="http://www.inkscape.org/namespaces/inkscape"
   inkscape:version="1.0 (4035a4f, 2020-05-01)"
   sodipodi:docname="about-left-shape.svg"
   id="svg864"
   version="1.1"
   width="494.836"
   viewBox="0 0 494.836 638.601"
   height="638.601">
  <metadata
     id="metadata870">
    <rdf:RDF>
      <cc:Work
         rdf:about="">
        <dc:format>image/svg+xml</dc:format>
        <dc:type
           rdf:resource="http://purl.org/dc/dcmitype/StillImage" />
      </cc:Work>
    </rdf:RDF>
  </metadata>
  <defs
     id="defs868" />
  <sodipodi:namedview
     inkscape:current-layer="g862"
     inkscape:window-maximized="1"
     inkscape:window-y="586"
     inkscape:window-x="1080"
     inkscape:cy="329.55669"
     inkscape:cx="219.61496"
     inkscape:zoom="1.1509534"
     showgrid="false"
     id="namedview866"
     inkscape:window-height="1027"
     inkscape:window-width="1920"
     inkscape:pageshadow="2"
     inkscape:pageopacity="0"
     guidetolerance="10"
     gridtolerance="10"
     objecttolerance="10"
     borderopacity="1"
     bordercolor="#666666"
     pagecolor="#ffffff" />
  <clipPath
     id="a">
    <path
       id="path850"
       transform="translate(297.858 1341)"
       d="m319.3 0c176.345 0-67.066 208.923 88.593 319.3s87.752 319.3-88.593 319.3-319.3-142.955-319.3-319.3 142.956-319.3 319.3-319.3z" />
  </clipPath>
  <linearGradient
     y1="0"
     gradientTransform="matrix(-0.88027084,0,0,-1.136014,792.69415,1979.6005)"
     y2="562.14096"
     x2="281.07048"
     x1="281.07048"
     gradientUnits="userSpaceOnUse"
     id="b">
    <stop
       style="stop-color:#f7dfdf;stop-opacity:1"
       id="stop853"
       stop-color="#dddff9"
       offset="0" />
    <stop
       style="stop-color:#d75357;stop-opacity:1"
       id="stop855"
       stop-color="#5864ff"
       offset="1" />
  </linearGradient>
  <path
     style="fill:#d03439;fill-opacity:1"
     id="path858"
     fill="#5864ff"
     d="m319.3 0c176.345 0-67.066 208.923 88.593 319.3s87.752 319.3-88.593 319.3-319.3-142.955-319.3-319.3 142.956-319.3 319.3-319.3z" />
  <g
     id="g862"
     transform="translate(-297.858,-1341)"
     clip-path="url(#a)">
    <path
       style="fill:url(#b)"
       id="path860"
       opacity="0.3"
       fill="url(#b)"
       d="m 473.39415,1979.6005 c -176.345,0 67.066,-208.923 -88.593,-319.3 -155.659,-110.377 -87.752,-319.3 88.593,-319.3 176.345,0 319.3,142.955 319.3,319.3 0,176.345 -142.956,319.3 -319.3,319.3 z" />
  </g>
</svg>
