<svg height="160" viewBox="0 0 370 160" width="370" xmlns="http://www.w3.org/2000/svg"><g fill="#ef5915"><circle cx="365" cy="5" r="5"/><circle cx="335" cy="5" r="5"/><circle cx="305" cy="5" r="5"/><circle cx="275" cy="5" r="5"/><circle cx="245" cy="5" r="5"/><circle cx="215" cy="5" r="5"/><circle cx="185" cy="5" r="5"/><circle cx="155" cy="5" r="5"/><circle cx="125" cy="5" r="5"/><circle cx="95" cy="5" r="5"/><circle cx="65" cy="5" r="5"/><circle cx="35" cy="5" r="5"/><circle cx="5" cy="5" r="5"/><circle cx="365" cy="35" r="5"/><circle cx="335" cy="35" r="5"/><circle cx="305" cy="35" r="5"/><circle cx="275" cy="35" r="5"/><circle cx="245" cy="35" r="5"/><circle cx="215" cy="35" r="5"/><circle cx="185" cy="35" r="5"/><circle cx="155" cy="35" r="5"/><circle cx="125" cy="35" r="5"/><circle cx="95" cy="35" r="5"/><circle cx="65" cy="35" r="5"/><circle cx="35" cy="35" r="5"/><circle cx="5" cy="35" r="5"/></g><circle cx="365" cy="65" fill="#d03439" r="5"/><circle cx="335" cy="65" fill="#d03439" r="5"/><circle cx="305" cy="65" fill="#d03439" r="5"/><circle cx="275" cy="65" fill="#d03439" r="5"/><circle cx="245" cy="65" fill="#d03439" r="5"/><circle cx="215" cy="65" fill="#d03439" r="5"/><circle cx="185" cy="65" fill="#fff" r="5"/><circle cx="155" cy="65" fill="#fff" r="5"/><circle cx="125" cy="65" fill="#fff" r="5"/><circle cx="95" cy="65" fill="#fff" r="5"/><circle cx="65" cy="65" fill="#fff" r="5"/><circle cx="35" cy="65" fill="#fff" r="5"/><circle cx="5" cy="65" fill="#fff" r="5"/><circle cx="365" cy="95" fill="#d03439" r="5"/><circle cx="335" cy="95" fill="#d03439" r="5"/><circle cx="305" cy="95" fill="#d03439" r="5"/><circle cx="275" cy="95" fill="#d03439" r="5"/><circle cx="245" cy="95" fill="#d03439" r="5"/><circle cx="215" cy="95" fill="#d03439" r="5"/><circle cx="185" cy="95" fill="#fff" r="5"/><circle cx="155" cy="95" fill="#fff" r="5"/><circle cx="125" cy="95" fill="#fff" r="5"/><circle cx="95" cy="95" fill="#fff" r="5"/><circle cx="65" cy="95" fill="#fff" r="5"/><circle cx="35" cy="95" fill="#fff" r="5"/><circle cx="5" cy="95" fill="#fff" r="5"/><circle cx="365" cy="125" fill="#d03439" r="5"/><circle cx="335" cy="125" fill="#d03439" r="5"/><circle cx="305" cy="125" fill="#d03439" r="5"/><circle cx="275" cy="125" fill="#d03439" r="5"/><circle cx="245" cy="125" fill="#d03439" r="5"/><circle cx="215" cy="125" fill="#d03439" r="5"/><circle cx="185" cy="125" fill="#d03439" r="5"/><circle cx="155" cy="125" fill="#fff" r="5"/><circle cx="125" cy="125" fill="#fff" r="5"/><circle cx="95" cy="125" fill="#fff" r="5"/><circle cx="65" cy="125" fill="#fff" r="5"/><circle cx="35" cy="125" fill="#fff" r="5"/><circle cx="5" cy="125" fill="#fff" r="5"/><g fill="#d03439"><circle cx="365" cy="155" r="5"/><circle cx="335" cy="155" r="5"/><circle cx="305" cy="155" r="5"/><circle cx="275" cy="155" r="5"/><circle cx="245" cy="155" r="5"/><circle cx="215" cy="155" r="5"/><circle cx="185" cy="155" r="5"/><circle cx="155" cy="155" r="5"/></g><circle cx="125" cy="155" fill="#fff" r="5"/><circle cx="95" cy="155" fill="#fff" r="5"/><circle cx="65" cy="155" fill="#fff" r="5"/><circle cx="35" cy="155" fill="#fff" r="5"/><circle cx="5" cy="155" fill="#fff" r="5"/></svg>