<svg height="285.00015" width="284.99994" xmlns="http://www.w3.org/2000/svg"><g transform="matrix(1.0178569 0 0 1.0178577 -37.989363 -760.775383)"><rect fill="#cc0001" height="279.06982" ry="58" stroke="#cc0001" stroke-width=".930173" width="279.06982" x="37.787979" y="747.89313"/><rect fill="#fff" height="234.37523" ry="40" stroke="#fff" stroke-width=".781251" width="234.37523" x="60.135288" y="770.24048"/><rect fill="#cc0001" height="217.0141" ry="35" stroke="#fff" stroke-width=".72338" width="217.0141" x="68.815849" y="778.92102"/><g fill="#fff"><path d="m212.20739 897.68955c0-2.91783 8.68061-11.38564 14.32865-13.97731 6.64781-3.05042 6.96729-7.52191.59849-8.37731-5.69358-.76469-8.28531-3.16378-8.28531-7.66953 0-3.29241-.79935-3.8175-5.81159-3.8175-3.1964 0-5.81162-.69467-5.81162-1.54375 0-4.0879 27.50881-7.40215 35.69985-4.30109 3.27949 1.2416 3.28071 1.2859.0978 3.55107-1.77273 1.26158-6.49759 2.29377-10.4996 2.29377-6.03277 0-7.18233.48029-6.7258 2.80989.3801 1.9395 2.40479 2.96017 6.53655 3.29512 4.50339.36505 6.45337 1.47734 7.87337 4.49105 3.07398 6.52391 2.26136 8.42245-5.16945 12.07763-3.88131 1.9092-9.65561 5.53661-12.83175 8.06084-5.77248 4.58766-9.99954 5.90109-9.99954 3.10712zm54.23593-17.76658c-6.41724-7.37466-9.40357-19.84975-9.40357-39.28227 0-24.78322-4.8949-32.43383-14.94374-23.35669-2.83298 2.55902-6.60722 5.09974-8.38723 5.64604-6.01138 1.84496-3.28902 3.98815 5.06592 3.98815 4.59632 0 8.30229.73922 8.30229 1.65603 0 1.8159-.89466 2.19733-11.03225 4.70336-5.22313 1.29116-7.13114 2.66433-7.91882 5.69902-1.32866 5.11911-3.93949 5.11204-5.95579-.0161-1.47427-3.74963-6.64183-5.75561-6.64183-2.57826 0 3.08081-9.82295 11.40928-13.45661 11.40928-3.54501 0-3.352-.46536 2.66365-6.42255 5.99053-5.93234 6.1958-6.42256 2.68928-6.42256-6.08108 0-3.17233-3.85682 4.07865-5.40798 3.58366-.76665 7.44972-1.64715 8.59128-1.95669 1.30834-.3547 2.07558-3.54902 2.07558-8.64134 0-8.88396 1.99953-10.32156 5.46372-3.92821l2.24882 4.15036 5.24561-4.26818 5.24562-4.26818-7.02631-5.18324-7.02631-5.18325-11.6232 6.58345c-15.54532 8.80498-17.49149 12.74495-19.25055 38.97249-1.63179 24.32921-2.41816 28.11992-6.59084 31.77149-4.30579 3.76804-5.68292 2.04569-3.40861-4.263 1.01884-2.82617 1.85975-14.24302 1.86867-25.37079.015-17.8642.47264-21.17197 3.91578-28.26051 4.60669-9.48393 7.29656-11.99577 18.83511-17.58853 5.18655-2.51396 9.51943-5.94185 10.81536-8.55643 2.69923-5.44589 4.84592-5.46697 7.51905-.0739 2.08609 4.20881 12.33881 9.35961 18.63042 9.35961 5.56086 0 11.63248 3.57991 14.99524 8.84135 2.82273 4.41645 3.21407 7.78259 3.00136 25.81595-.2568 21.77154 2.50308 36.73241 7.70393 41.76155 1.41448 1.36781 2.57178 3.15781 2.57178 3.97782 0 3.11224-4.85076 1.3018-8.86146-3.30729zm-57.55684-28.19928c0-1.78596 11.68391-5.53781 17.24566-5.53781 8.37377 0 11.52598 1.44576 9.16071 4.2016-1.30762 1.52359-5.7526 2.22095-14.15628 2.22095-6.73755 0-12.25009-.39812-12.25009-.88474zm32.32127-8.6521c-4.40572-1.75185-7.99864-5.9809-6.06366-7.13728 2.27204-1.35784 15.44155 4.0869 14.74924 6.09788-.78494 2.27997-4.45972 2.71974-8.68558 1.0394zm-33.05736-19.72193c-3.21099-4.43302-3.26826-6.0653-.21276-6.0653 3.05843 0 7.59067 4.38261 7.59067 7.34006 0 3.50442-4.47639 2.73097-7.37791-1.27476z" stroke-width=".456619"/><path d="m234.01925 978.04499c-3.3523-5.64536-1.52343-18.34395-7.30717-21.51235-.52137-.2657-.97911-.44893-1.01719-.40701-.0381.0423-.95177 1.84049-2.03041 3.9968-3.07259 5.77055-6.64797 11.56216-11.25611 15.96536-8.23602 6.67392-13.86746 8.28483-22.08463 3.78219-10.55107-6.56383-8.84045-20.03307-10.43905-30.02858-.35474-2.05309-.30772-4.48098.0991-5.11495 5.44519-3.31406 6.27496 7.78038 6.93181 10.39571 2.23697.4364 5.40847.54207 7.95402.87611 1.1407-3.96815 1.52546-6.11615 2.05215-9.32341-10.31641-5.11878-14.36444-8.93293-15.37085-19.91956-.10158-2.8121 3.06373-2.85566 3.91988-2.01653 1.77962 6.73655 6.63687 13.65227 12.08175 14.82786 1.33464.18271 1.84642-.20556 2.37803-1.80413.62445-1.87777.38294-2.36403-2.52995-5.09391-4.23198-3.15555-4.0353-11.80391-6.30111-14.93185-3.82049-.12665-8.61489-.0106-9.584-1.11736-.38584-.5213-.38584-2.73276 0-3.20677 11.22329-5.58817 25.27329-5.32482 36.06782-4.6639 3.93581.99091 5.63456 1.05763 5.00778 4.97903-2.38932 1.21928-4.41811 1.73671-5.97138 2.86834-2.49195 4.56149-3.11931 12.17145-6.54412 15.65045-3.2528 3.05574-3.39427 4.03158-3.86589 7.74053 4.6715 2.42168 9.61052-2.51225 12.80592-1.94689.42125.59072 1.10728 2.09277 1.0408 2.27873-4.19215 5.1726-10.35897 6.39646-16.39366 7.74976-.61207 2.65858-1.26674 6.10019-1.79357 8.5972 3.56394.52849 14.4026 1.3111 16.04383 1.52136 1.79123-1.96652 3.45899-4.01926 5.07066-6.12493-.20045-1.53379-1.11139-3.95257-.34509-4.97696 1.33895-.81966 3.20685-1.06653 4.53513-.024 1.21337 1.01375 2.32507 1.1188 5.90984.55863 5.04679-.78877 3.89547-.52596 5.22185-2.52912 3.07625-4.79234 6.47705-10.35503 8.70321-14.64109-2.82658-4.69052-4.70072-8.10564-7.54966-12.93509-2.77069-4.67677-3.65043-7.19287-5.95418-7.97689-4.13776.27601-5.67239 1.15149-7.2175-2.85382 0-2.14377.52758-2.5292 4.09107-2.98908 1.0944-.14123 4.48351-.70242 7.53133-1.24707 7.73223-.61212 16.21025-1.25599 23.99338-.7686 9.47876.59354 9.09854.48986 10.2628 2.79816 1.09197 3.16248 1.476 10.10227-2.42847 6.56841-3.51359-2.41291-5.00756-3.90376-8.81298-3.05319-.26618 2.93079 1.56628 4.91411 3.09007 7.18251-3.1098 5.58087-7.02126 11.31965-9.79732 16.07608 2.57409 4.51109 7.48951 13.44034 9.18248 16.28772 2.43799.10555 6.049.47769 8.01335.67707 2.22447.88717 4.43197 3.67889.43159 13.9403-3.21672 8.25131-8.53787 15.87884-15.63579 20.71462-7.83071 4.36119-19.24559.53999-22.18953-4.82585zm20.89711-3.06609c2.82863-1.93168 3.33982-2.85369 4.20142-5.72463-3.7718.51023-13.7746.9489-20.19184 1.83211 2.8512 7.20614 11.84903 6.7488 15.99042 3.89252zm-41.85388-9.06799c2.52884-4.45955-1.11364-3.79553-3.68667-3.89423-8.45096-.0493-14.11914 1.70088-21.03432 1.16743-.21091 7.81351 4.45378 10.312 9.44924 11.22972 7.98293-.83603 11.12498-2.63178 15.27175-8.50292zm51.88302-4.11205c1.06516-1.01393 4.04222-6.77652 3.39196-7.27481-10.06537-.11831-23.53052.37412-32.0461 1.13655.70372 2.91721.73683 6.01277 1.03115 8.40353 8.90829-.51567 20.02282-2.26527 27.62299-2.26527zm-12.52086-14.79347c1.32551-1.08564 2.13254-2.50359 1.90077-4.26034-.20381-1.35131-1.74468-4.21549-2.63117-4.89081-1.51548-1.15449-1.6588-1.07195-4.87572 2.80788-1.7566 1.31723-4.31521 6.34263-1.73603 6.61863 2.46485.34438 5.44773 1.03083 7.34215-.27536zm-43.09255-31.16445c-4.68389-.10921-8.13176.0302-13.26844.83099.79331 3.14328 5.89808 13.04691 8.15169 13.00475 3.27461-2.73439 5.12662-9.08076 5.11675-13.83574zm48.92556-3.86309c-1.02996-2.24697-5.14656-4.79834-8.12571-4.82426-3.43856.36913-5.15723 1.76433-7.4211 3.79521 3.04717 5.70158 3.83039 6.96538 7.40092 13.01139 2.59858-4.05126 5.85321-8.55335 8.14589-11.98234zm-69.37698-7.4208c-1.64211-2.68786-.89687-3.89446.81895-4.89084 7.68148-2.43683 18.09295-4.08684 24.40823-2.9767 2.36761.42084 3.03113.72699 4.02447 1.85698.72164.82089 1.1948 2.2504.90166 2.72412-8.55614.81363-15.6132 2.14268-23.10048 3.12212-4.4317.56809-6.67392.62034-7.05283.16432z" stroke-width=".23832"/><path d="m104.54247 896.96084c0-.97571 3.43723-4.55412 7.63831-7.95209l7.6383-6.17809-6.4332-3.01672c-7.64846-3.58658-16.451637-14.75995-13.61685-17.28306 1.33328-1.18673 3.42203.0703 7.78002 4.68207 4.31412 4.56536 7.18344 6.30437 10.40208 6.30437 8.67387 0 7.30214-7.18174-2.20479-11.54334-4.59721-2.10913-5.63999-3.47894-6.04533-7.94135-.39807-4.38206.32311-5.98031 3.84871-8.5294 2.38622-1.72529 5.69307-3.13687 7.34857-3.13687 3.85938 0 3.80305-1.63996-.21764-6.3383-1.7752-2.07439-3.22764-5.79233-3.22764-8.26208 0-6.21473-2.68163-12.10047-5.51317-12.10047-1.30099 0-2.6555.50064-3.01003 1.11252-.91751 1.58359 1.29981 19.88632 2.78545 22.9924 1.96964 4.11797-3.42145 3.22619-6.48604-1.07291-1.99593-2.79997-2.35106-5.43474-1.49958-11.12537 1.2622-8.43547-.6732-9.79531-5.100892-3.58397-2.209334 3.09934-2.832718 7.91211-3.122255 24.10493-.510881 28.57176-5.469998 46.19152-13.000665 46.19152-2.763243 0-2.77934-2.95538-.03659-6.71597 4.83658-6.63146 6.448353-19.29517 5.320792-41.80562-.921654-18.39979-.702816-22.45483 1.356574-25.1369 2.95198-3.84453 20.098256-14.81646 24.322966-15.56431 2.14923-.38046 3.4931-2.64394 4.71631-7.94376 1.99022-8.62298 6.04936-10.16381 7.33623-2.78482 1.08632 6.22924 8.46937 11.55879 19.36578 13.97949 11.91926 2.64795 20.52988 6.68013 21.73823 10.17961.54629 1.58215.14009 7.3799-.90264 12.8839-2.66735 14.07906-1.04191 40.49147 3.1868 51.78307 3.91349 10.44987 4.17151 12.7833 1.30159 11.77104-2.98259-1.05202-10.84664-16.23217-13.23451-25.54689-1.5337-5.98263-1.61509-12.24688-.3433-26.41681 1.92838-21.48565 2.76597-19.82197-14.16689-28.13968-6.21319-3.05202-12.44417-6.2042-13.84662-7.00482-1.81417-1.03567-3.78406-.7124-6.82722 1.12039-3.43578 2.06926-3.96428 3.11367-2.68632 5.30858.87505 1.50288 2.31331 3.14286 3.19613 3.64436.88283.50153 1.60787 3.70944 1.61118 7.1287.007 7.02269 4.16485 14.28349 11.37187 19.85765 3.57473 2.76482 4.76027 4.95439 4.76027 8.79177 0 4.26756-.93113 5.61498-5.64837 8.17322-5.5901 3.03169-7.75552 8.81499-4.08194 10.90187 2.57999 1.46562 10.59426-3.18132 15.8357-9.18216 5.73632-6.56738 7.36163-6.11827 5.10037 1.40942-2.03045 6.75931-9.0506 12.29355-17.10782 13.48663-5.272.78063-6.76006 1.89053-9.92758 7.40438-4.71315 8.20445-19.67435 16.64072-19.67435 11.09387zm28.07011-41.61491c2.26396-3.32223-.40239-7.59987-5.14259-8.25028-7.21186-.98955-15.61405 8.31038-9.61352 10.64069 4.12826 1.60318 13.01574.16348 14.75611-2.39041zm8.81077-14.85588c-3.2369-2.63941-6.68643-7.06796-7.66564-9.84125-2.03668-5.76837-2.36414-13.51087-.56997-13.47721 3.26581.0612 5.29136 2.99713 6.93851 10.05675 1.1828 5.06944 3.43154 9.23705 6.51182 12.06837 8.35852 7.68291 3.97435 8.6862-5.21472 1.19334z" stroke-width=".485876"/><path d="m367 634c-4-4-7-27-7-51 0-37-3-44-17-41-12 2-19 14-21 33-2 17-8 34-12 39-16 16-40-15-40-51 0-30-3-34-22-31-16 2-24 12-29 36-8 40-14 46-33 39-12-5-15-39-16-193 0-103-3-190-5-194-3-4-18-10-35-13-21-5-30-12-30-27 0-19 6-20 95-20h95v-30c0-37-16-45-100-54-69-7-92-18-72-38 9-9 29-9 89 1 97 15 126 35 133 87 5 37 7 39 41 42 38 3 49-10 49-65 0-34 31-44 128-41 79 3 87 5 87 23s-7 20-60 21c-106 1-105 1-105 33v28l84 7c95 7 116 13 116 31 0 15-22 25-57 25h-25l7 193c6 172 6 194-9 206-21 18-25 13-34-40-6-34-12-44-27-44s-21 9-26 38c-7 44-13 52-34 44-10-4-15-20-15-47 0-36-3-40-24-40-23 0-25 5-28 47-2 34-8 49-18 51-9 1-19 0-23-4zm193-179c0-41-2-45-25-45-22 0-25 4-25 39 0 22 5 42 13 44 31 13 37 6 37-38zm-100-10c0-41-2-45-25-45-22 0-25 4-25 38 0 43 5 52 32 52 15 0 18-8 18-45zm-192-7c-2-36-7-44-25-46-21-3-23 1-23 42 0 43 2 46 26 46 23 0 25-3 22-42zm90-1c3-32 0-37-17-37-18 0-21 6-21 41 0 33 3 40 18 37 12-2 18-14 20-41zm100-154c3-62 2-63-23-63-24 0-25 2-25 66 0 62 1 65 23 62 20-3 22-9 25-65zm100 5c-2-52-6-63-22-66-26-5-36 15-36 76 0 51 0 52 30 52h31zm-278-1c0-58-12-77-47-77-22 0-23 4-23 65v65h35 35zm80-7c0-53-2-60-20-60s-20 7-20 60 2 60 20 60 20-7 20-60z" transform="matrix(.16268113 0 0 -.14699556 67.607868 988.67459)"/></g></g></svg>