<?xml version="1.0" encoding="UTF-8" standalone="no"?>
<svg
   xmlns:dc="http://purl.org/dc/elements/1.1/"
   xmlns:cc="http://creativecommons.org/ns#"
   xmlns:rdf="http://www.w3.org/1999/02/22-rdf-syntax-ns#"
   xmlns:svg="http://www.w3.org/2000/svg"
   xmlns="http://www.w3.org/2000/svg"
   xmlns:sodipodi="http://sodipodi.sourceforge.net/DTD/sodipodi-0.dtd"
   xmlns:inkscape="http://www.inkscape.org/namespaces/inkscape"
   width="20"
   height="20"
   viewBox="0 0 20 20"
   fill="none"
   id="svg2"
   version="1.1"
   inkscape:version="0.91 r13725"
   sodipodi:docname="check_box_checked.svg"
   inkscape:export-filename="E:\Libraries\Documents\GitHub\fluentui-system-icons\assets\Checkbox Checked\SVG\ic_fluent_checkbox_checked_20_regular.png"
   inkscape:export-xdpi="1125"
   inkscape:export-ydpi="1125">
  <metadata
     id="metadata12">
    <rdf:RDF>
      <cc:Work
         rdf:about="">
        <dc:format>image/svg+xml</dc:format>
        <dc:type
           rdf:resource="http://purl.org/dc/dcmitype/StillImage" />
        <dc:title></dc:title>
      </cc:Work>
    </rdf:RDF>
  </metadata>
  <defs
     id="defs10" />
  <sodipodi:namedview
     pagecolor="#ffffff"
     bordercolor="#666666"
     borderopacity="1"
     objecttolerance="10"
     gridtolerance="10"
     guidetolerance="10"
     inkscape:pageopacity="0"
     inkscape:pageshadow="2"
     inkscape:window-width="1852"
     inkscape:window-height="1057"
     id="namedview8"
     showgrid="false"
     inkscape:zoom="11.8"
     inkscape:cx="10"
     inkscape:cy="10"
     inkscape:window-x="1140"
     inkscape:window-y="502"
     inkscape:window-maximized="1"
     inkscape:current-layer="svg2" />
  <path
     d="M13.8536 7.85355C14.0488 7.65829 14.0488 7.34171 13.8536 7.14645C13.6583 6.95118 13.3417 6.95118 13.1464 7.14645L8.5 11.7929L6.85355 10.1464C6.65829 9.95118 6.34171 9.95118 6.14645 10.1464C5.95118 10.3417 5.95118 10.6583 6.14645 10.8536L8.14645 12.8536C8.34171 13.0488 8.65829 13.0488 8.85355 12.8536L13.8536 7.85355Z"
     fill="#212121"
     id="path4" />
  <path
     d="M5.68182 3C4.20069 3 3 4.20069 3 5.68182V14.3182C3 15.7993 4.20069 17 5.68182 17H14.3182C15.7993 17 17 15.7993 17 14.3182V5.68182C17 4.20069 15.7993 3 14.3182 3H5.68182ZM4 5.68182C4 4.75298 4.75298 4 5.68182 4H14.3182C15.247 4 16 4.75298 16 5.68182V14.3182C16 15.247 15.247 16 14.3182 16H5.68182C4.75298 16 4 15.247 4 14.3182V5.68182Z"
     fill="#212121"
     id="path6" />
</svg>
