<?xml version="1.0" encoding="UTF-8" standalone="no"?>
<!-- Created with Inkscape (http://www.inkscape.org/) -->

<svg
   xmlns:dc="http://purl.org/dc/elements/1.1/"
   xmlns:cc="http://creativecommons.org/ns#"
   xmlns:rdf="http://www.w3.org/1999/02/22-rdf-syntax-ns#"
   xmlns:svg="http://www.w3.org/2000/svg"
   xmlns="http://www.w3.org/2000/svg"
   xmlns:sodipodi="http://sodipodi.sourceforge.net/DTD/sodipodi-0.dtd"
   xmlns:inkscape="http://www.inkscape.org/namespaces/inkscape"
   width="350"
   height="350"
   id="svg2"
   version="1.1"
   inkscape:version="0.92.2 5c3e80d, 2017-08-06"
   sodipodi:docname="icon.svg"
   inkscape:export-filename="/Users/aaron/Documents/Github/jyut-dict/src/jyut-dict/resources/icon/icon_512x512@2x.png"
   inkscape:export-xdpi="280.86856"
   inkscape:export-ydpi="280.86856">
  <defs
     id="defs4" />
  <sodipodi:namedview
     id="base"
     pagecolor="#ffffff"
     bordercolor="#666666"
     borderopacity="1.0"
     inkscape:pageopacity="0.0"
     inkscape:pageshadow="2"
     inkscape:zoom="1.979899"
     inkscape:cx="142.82408"
     inkscape:cy="233.68121"
     inkscape:document-units="px"
     inkscape:current-layer="layer1"
     showgrid="false"
     inkscape:window-width="1878"
     inkscape:window-height="1155"
     inkscape:window-x="42"
     inkscape:window-y="1"
     inkscape:window-maximized="1"
     showguides="true"
     inkscape:guide-bbox="true"
     inkscape:snap-global="false">
    <sodipodi:guide
       position="150"
       orientation="1,0"
       id="guide885"
       inkscape:locked="false" />
    <sodipodi:guide
       position="387.857,150"
       orientation="0,1"
       id="guide887"
       inkscape:locked="false"
       inkscape:label=""
       inkscape:color="rgb(0,0,255)" />
  </sodipodi:namedview>
  <metadata
     id="metadata7">
    <rdf:RDF>
      <cc:Work
         rdf:about="">
        <dc:format>image/svg+xml</dc:format>
        <dc:type
           rdf:resource="http://purl.org/dc/dcmitype/StillImage" />
        <dc:title></dc:title>
      </cc:Work>
    </rdf:RDF>
  </metadata>
  <g
     inkscape:label="Calque 1"
     inkscape:groupmode="layer"
     id="layer1"
     transform="translate(0,-702.36218)">
    <rect
       ry="34.883724"
       y="727.86053"
       x="25.498339"
       height="299.00333"
       width="299.0033"
       id="rect883"
       style="fill:#ff320a;fill-opacity:1;stroke:#ffffff;stroke-width:0.99667782;stroke-opacity:1" />
    <rect
       style="fill:#ffffff;fill-opacity:1;stroke:#ffffff;stroke-width:0.89598101;stroke-opacity:1"
       id="rect880"
       width="268.95837"
       height="268.63031"
       x="40.44799"
       y="743.28394"
       ry="33.69072" />
    <path
       style="fill:#ff320a;fill-opacity:1;stroke-width:0.62913227"
       d="m 223.06405,891.50054 c 0,-4.0202 11.9602,-15.6872 19.74209,-19.25801 9.15939,-4.2029 9.59957,-10.36374 0.82462,-11.54231 -7.84466,-1.0536 -11.41556,-4.35909 -11.41556,-10.56713 0,-4.5363 -1.10135,-5.25977 -8.00724,-5.25977 -4.40403,0 -8.00728,-0.95712 -8.00728,-2.12699 0,-5.63234 37.90179,-10.19873 49.18745,-5.92607 4.5185,1.71068 4.52018,1.77172 0.13475,4.89268 -2.44247,1.73821 -8.9524,3.16038 -14.46641,3.16038 -8.31198,0 -9.89586,0.66173 -9.26683,3.87147 0.5237,2.67227 3.31333,4.07854 9.00609,4.54003 6.20478,0.50299 8.89149,2.03551 10.84797,6.18781 4.23534,8.98869 3.11572,11.6045 -7.1225,16.64062 -5.34769,2.63052 -13.30356,7.62839 -17.67966,11.10628 -7.95336,6.32091 -13.77743,8.13056 -13.77743,4.28101 z m 74.72657,-24.4789 c -8.84171,-10.16085 -12.95629,-27.34911 -12.95629,-54.12335 0,-34.14647 -6.74421,-44.68752 -20.58958,-32.18098 -3.90327,3.52583 -9.10345,7.02644 -11.55596,7.77914 -8.28252,2.54199 -4.53164,5.4949 6.97986,5.4949 6.33283,0 11.43893,1.0185 11.43893,2.28169 0,2.50196 -1.23266,3.02749 -15.20029,6.48031 -7.19647,1.77898 -9.82533,3.67094 -10.91059,7.85214 -1.83065,7.05315 -5.42787,7.04342 -8.20594,-0.0222 -2.03124,-5.16627 -9.15114,-7.93012 -9.15114,-3.55235 0,4.24476 -13.53412,15.71977 -18.54061,15.71977 -4.88433,0 -4.61839,-0.64117 3.67,-8.84903 8.25379,-8.17361 8.53662,-8.84904 3.70531,-8.84904 -8.37855,0 -4.37086,-5.31395 5.61959,-7.45115 4.93758,-1.05628 10.26427,-2.26945 11.83711,-2.69593 1.80264,-0.48872 2.85974,-4.88987 2.85974,-11.90609 0,-12.24037 2.75496,-14.22112 7.52795,-5.41231 l 3.09844,5.71838 7.22743,-5.88071 7.22744,-5.88072 -9.68088,-7.14151 -9.6809,-7.14152 -16.01451,9.07073 c -21.41843,12.13156 -24.09988,17.56006 -26.52352,53.69652 -2.24829,33.52093 -3.33175,38.7438 -9.0809,43.77496 -5.93254,5.19162 -7.82995,2.81856 -4.69639,-5.8736 1.40376,-3.89391 2.56236,-19.62412 2.57466,-34.95602 0.0207,-24.6134 0.6512,-29.17088 5.39518,-38.9375 6.34713,-13.06702 10.05324,-16.52785 25.95113,-24.23359 7.14605,-3.46374 13.11592,-8.1867 14.90146,-11.7891 3.71902,-7.50337 6.67674,-7.53242 10.35978,-0.10177 2.87423,5.79892 17.00051,12.89573 25.66911,12.89573 7.66179,0 16.0273,4.93242 20.66054,12.18166 3.88916,6.08502 4.42836,10.72289 4.13529,35.56938 -0.35383,29.99695 3.44876,50.61013 10.6145,57.53931 1.9489,1.88456 3.54343,4.35084 3.54343,5.48067 0,4.28805 -6.68339,1.79362 -12.20938,-4.55682 z M 218.48847,828.1685 c 0,-2.46071 16.09815,-7.63002 23.76117,-7.63002 11.53743,0 15.88056,1.99198 12.6217,5.78898 -1.80165,2.09922 -7.92598,3.06005 -19.50461,3.06005 -9.28304,0 -16.87826,-0.54855 -16.87826,-1.21901 z m 44.53245,-11.92091 c -6.07024,-2.41371 -11.02058,-8.24051 -8.35456,-9.83379 3.13044,-1.87084 21.27545,5.63096 20.32158,8.4017 -1.08148,3.14135 -6.14462,3.74727 -11.96702,1.43209 z M 217.47428,789.0746 c -4.42413,-6.10784 -4.50303,-8.35681 -0.29313,-8.35681 4.21392,0 10.45847,6.03839 10.45847,10.11318 0,4.8284 -6.1676,3.76274 -10.16534,-1.75637 z"
       id="path3028"
       inkscape:connector-curvature="0" />
    <path
       inkscape:connector-curvature="0"
       style="fill:#ff320a;fill-opacity:1;stroke-width:0.32835811"
       d="m 253.11655,1002.2147 c -4.61881,-7.77816 -2.09898,-25.27436 -10.06786,-29.6398 -0.71834,-0.36608 -1.34902,-0.61854 -1.40149,-0.56077 -0.0524,0.0583 -1.31135,2.53583 -2.79752,5.50681 -4.23342,7.9507 -9.1596,15.9304 -15.50871,21.9972 -11.34765,9.19526 -19.10668,11.41486 -30.42835,5.21106 -14.53732,-9.04366 -12.18042,-27.60166 -14.38298,-41.37353 -0.48876,-2.82877 -0.42398,-6.17392 0.13649,-7.04741 7.50241,-4.56614 8.64568,10.71985 9.55069,14.32328 3.08211,0.60126 7.45181,0.74686 10.95908,1.20711 1.57166,-5.46734 2.10179,-8.42687 2.82747,-12.84586 -14.214,-7.05268 -19.79141,-12.30784 -21.17804,-27.44528 -0.13996,-3.87453 4.22123,-3.93455 5.40082,-2.77838 2.45197,9.28165 9.14433,18.81016 16.64632,20.4299 1.83886,0.25175 2.54401,-0.28321 3.27646,-2.48574 0.86037,-2.5872 0.52762,-3.25718 -3.48577,-7.01842 -5.83086,-4.34773 -5.55987,-16.26349 -8.68172,-20.57319 -5.2639,-0.1745 -11.86965,-0.0147 -13.20489,-1.5395 -0.5316,-0.71825 -0.5316,-3.76521 0,-4.41831 15.46352,-7.69941 34.82169,-7.33657 49.69446,-6.42595 5.42278,1.36528 7.76334,1.4572 6.89976,6.86013 -3.29203,1.67994 -6.08732,2.39285 -8.22742,3.95202 -3.43342,6.28485 -4.2978,16.7699 -9.01653,21.56328 -4.48171,4.21023 -4.67663,5.55474 -5.32644,10.66496 6.43641,3.33661 13.24143,-3.4614 17.64407,-2.68244 0.58041,0.81389 1.52562,2.88343 1.43402,3.13964 -5.77597,7.12684 -14.27264,8.81308 -22.58728,10.67767 -0.84332,3.66301 -1.74532,8.40488 -2.47119,11.84528 4.91041,0.72815 19.84398,1.80644 22.10529,2.09613 2.46796,-2.70948 4.7658,-5.53775 6.98637,-8.43896 -0.27618,-2.11326 -1.53127,-5.44588 -0.47546,-6.85729 1.84482,-1.12933 4.41842,-1.46947 6.24853,-0.033 1.67179,1.39676 3.20349,1.5415 8.1426,0.76969 6.95351,-1.08677 5.36721,-0.72468 7.19471,-3.48464 4.23846,-6.60291 8.92412,-14.26722 11.99133,-20.17258 -3.89448,-6.46262 -6.47667,-11.168 -10.40197,-17.82203 -3.81746,-6.4437 -5.02958,-9.91038 -8.2037,-10.99061 -5.70104,0.38027 -7.81545,1.58651 -9.9443,-3.93202 0,-2.95369 0.72689,-3.48475 5.63669,-4.11838 1.50786,-0.19457 6.17739,-0.96778 10.37671,-1.71821 10.65351,-0.8434 22.33457,-1.73052 33.05822,-1.05898 13.05989,0.81778 12.53603,0.67493 14.14014,3.85532 1.50453,4.35728 2.03364,13.91897 -3.34595,9.05 -4.84106,-3.32454 -6.89945,-5.37864 -12.14259,-4.20671 -0.36674,4.03806 2.15803,6.77068 4.25753,9.89611 -4.28471,7.68935 -9.67395,15.59627 -13.49881,22.14972 3.5466,6.2154 10.31909,18.51817 12.65167,22.4413 3.35908,0.14543 8.33436,0.65818 11.04086,0.93288 3.06487,1.22236 6.10639,5.06881 0.59463,19.20704 -4.43201,11.3687 -11.76353,21.87786 -21.54308,28.54076 -10.78919,6.0089 -26.51669,0.744 -30.57287,-6.6492 z m 28.79216,-4.22446 c 3.89732,-2.6615 4.60163,-3.9318 5.78875,-7.8874 -5.19682,0.703 -18.97873,1.3074 -27.82044,2.5243 3.92841,9.92856 16.32566,9.29846 22.03169,5.3631 z m -57.66651,-12.4939 c 3.48424,-6.1444 -1.53439,-5.2295 -5.07952,-5.3655 -11.64379,-0.068 -19.45343,2.3435 -28.9812,1.6085 -0.2906,10.7655 6.13644,14.2079 13.0192,15.4724 10.99894,-1.1519 15.32807,-3.6261 21.04152,-11.7154 z m 71.48473,-5.6656 c 1.46757,-1.397 5.56939,-9.33674 4.67345,-10.02328 -13.86813,-0.16301 -32.42049,0.51546 -44.1533,1.56594 0.9696,4.01934 1.01521,8.28444 1.42074,11.57844 12.27387,-0.7105 27.58754,-3.1211 38.05911,-3.1211 z m -17.25132,-20.38253 c 1.8263,-1.49581 2.93822,-3.44946 2.61889,-5.86993 -0.28082,-1.86184 -2.40384,-5.80812 -3.62524,-6.73858 -2.08804,-1.59068 -2.28551,-1.47695 -6.7178,3.86871 -2.42026,1.81488 -5.94553,8.73891 -2.39192,9.11919 3.3961,0.47448 7.50592,1.42028 10.11607,-0.37939 z m -59.37316,-42.93857 c -6.4535,-0.15047 -11.204,0.0417 -18.28134,1.14494 1.09303,4.33082 8.1264,17.9761 11.23145,17.91801 4.51176,-3.76745 7.06349,-12.51151 7.04989,-19.06295 z m 67.40991,-5.3226 c -1.41908,-3.09589 -7.09095,-6.61117 -11.19564,-6.64688 -4.73768,0.50859 -7.10567,2.43089 -10.22484,5.22905 4.19842,7.85568 5.27754,9.59695 10.19703,17.92717 3.58035,-5.58184 8.06459,-11.78485 11.22345,-16.50934 z m -95.588,-10.22442 c -2.26252,-3.70335 -1.23571,-5.36581 1.12835,-6.73863 10.58358,-3.35748 24.92856,-5.63086 33.6298,-4.10131 3.2621,0.57984 4.17632,1.00165 5.54494,2.55855 0.99428,1.13104 1.6462,3.10063 1.24231,3.75332 -11.78871,1.12102 -21.51195,2.95219 -31.82798,4.30167 -6.10603,0.78273 -9.19536,0.85471 -9.71742,0.2264 z"
       id="path4437" />
    <path
       style="fill:#ff320a;fill-opacity:1;stroke-width:0.66944313"
       d="m 74.722683,890.49651 c 0,-1.34432 4.735845,-6.27468 10.524112,-10.95642 l 10.524087,-8.51222 -8.863689,-4.15645 c -10.538096,-4.94161 -22.667167,-20.33636 -18.761382,-23.81271 1.837006,-1.63508 4.714891,0.0969 10.71937,6.45099 5.943996,6.29018 9.897382,8.6862 14.332034,8.6862 11.950915,0 10.060935,-9.89505 -3.037776,-15.90449 -6.334053,-2.90597 -7.770804,-4.7933 -8.329297,-10.94163 -0.548453,-6.03764 0.445198,-8.23971 5.302778,-11.75187 3.287756,-2.3771 7.843946,-4.322 10.124905,-4.322 5.317485,0 5.239875,-2.25953 -0.29986,-8.73294 -2.44588,-2.85811 -4.447068,-7.9807 -4.447068,-11.38354 0,-8.5627 -3.694753,-16.67211 -7.596076,-16.67211 -1.792501,0 -3.658751,0.68979 -4.147227,1.53285 -1.264152,2.18188 1.790877,27.39948 3.837809,31.67906 2.713768,5.67377 -4.714096,4.44507 -8.936512,-1.47827 -2.749996,-3.8578 -3.239302,-7.488 -2.066133,-15.32858 1.739073,-11.62245 -0.927532,-13.49604 -7.028034,-4.93803 -3.044032,4.27029 -3.902936,10.90134 -4.301861,33.21191 -0.703894,39.36636 -7.536595,63.64297 -17.912393,63.64297 -3.807211,0 -3.82939,-4.07195 -0.05042,-9.25331 6.663867,-9.13687 8.884578,-26.585 7.331017,-57.60004 -1.26986,-25.35133 -0.968345,-30.9384 1.869096,-34.63376 4.067254,-5.29702 27.691498,-20.41422 33.512329,-21.44461 2.961207,-0.5242 4.812816,-3.64284 6.498158,-10.94496 2.742138,-11.88079 8.33485,-14.00375 10.10789,-3.83693 1.49675,8.58267 11.66916,15.92576 26.6823,19.26102 16.42243,3.64835 28.2862,9.20393 29.95106,14.02553 0.75269,2.17989 0.19302,10.16807 -1.24365,17.75151 -3.6751,19.39822 -1.43555,55.7894 4.39078,71.34703 5.39203,14.39789 5.74753,17.6129 1.79335,16.2182 -4.10944,-1.44947 -14.94456,-22.36478 -18.23459,-35.19866 -2.11314,-8.2429 -2.22529,-16.87382 -0.473,-36.39723 2.65692,-29.60307 3.81097,-27.31083 -19.51923,-38.77101 -8.56057,-4.2051 -17.14566,-8.5482 -19.07796,-9.6513 -2.49957,-1.42696 -5.21371,-0.98155 -9.406575,1.54368 -4.733845,2.85103 -5.462022,4.29003 -3.701235,7.3142 1.205635,2.07067 3.18728,4.33024 4.403645,5.02122 1.216365,0.69101 2.215335,5.11089 2.219895,9.82195 0.01,9.67592 5.73835,19.67989 15.66823,27.36 4.9253,3.80939 6.55873,6.82618 6.55873,12.11335 0,5.87988 -1.28293,7.73635 -7.78236,11.26112 -7.70207,4.17707 -10.6856,12.14534 -5.62413,15.02065 3.55474,2.01935 14.59684,-4.38323 21.81853,-12.65123 7.90355,-9.04856 10.14291,-8.42978 7.02733,1.94191 -2.79758,9.31302 -12.46997,16.93814 -23.57127,18.58196 -7.26379,1.07557 -9.31406,2.60478 -13.67827,10.2018 -6.493813,11.30413 -27.107438,22.92768 -27.107437,15.28519 z m 38.675167,-57.33726 c 3.1193,-4.5774 -0.55441,-10.47115 -7.0855,-11.36728 -9.936531,-1.36342 -21.513128,11.45009 -13.245559,14.6608 5.687953,2.20887 17.933169,0.22525 20.331059,-3.29352 z m 12.13953,-20.46852 c -4.45982,-3.6366 -9.21261,-9.73829 -10.56176,-13.55934 -2.80615,-7.9477 -3.25733,-18.61536 -0.78532,-18.56897 4.49966,0.0844 7.29048,4.12946 9.55993,13.85624 1.62966,6.9847 4.72799,12.72687 8.97203,16.62787 11.51641,10.58556 5.47588,11.9679 -7.18488,1.6442 z"
       id="path2996"
       inkscape:connector-curvature="0" />
    <g
       style="fill:#ff320a;fill-opacity:1;stroke:none"
       transform="matrix(0.22414301,0,0,-0.20253137,23.833974,1016.8603)"
       id="g6">
      <path
         inkscape:connector-curvature="0"
         d="m 367,634 c -4,-4 -7,-27 -7,-51 0,-37 -3,-44 -17,-41 -12,2 -19,14 -21,33 -2,17 -8,34 -12,39 -16,16 -40,-15 -40,-51 0,-30 -3,-34 -22,-31 -16,2 -24,12 -29,36 -8,40 -14,46 -33,39 -12,-5 -15,-39 -16,-193 0,-103 -3,-190 -5,-194 -3,-4 -18,-10 -35,-13 -21,-5 -30,-12 -30,-27 0,-19 6,-20 95,-20 h 95 V 130 C 290,93 274,85 190,76 121,69 98,58 118,38 c 9,-9 29,-9 89,1 97,15 126,35 133,87 5,37 7,39 41,42 38,3 49,-10 49,-65 0,-34 31,-44 128,-41 79,3 87,5 87,23 0,18 -7,20 -60,21 -106,1 -105,1 -105,33 v 28 l 84,7 c 95,7 116,13 116,31 0,15 -22,25 -57,25 h -25 l 7,193 c 6,172 6,194 -9,206 -21,18 -25,13 -34,-40 -6,-34 -12,-44 -27,-44 -15,0 -21,9 -26,38 -7,44 -13,52 -34,44 -10,-4 -15,-20 -15,-47 0,-36 -3,-40 -24,-40 -23,0 -25,5 -28,47 -2,34 -8,49 -18,51 -9,1 -19,0 -23,-4 z M 560,455 c 0,-41 -2,-45 -25,-45 -22,0 -25,4 -25,39 0,22 5,42 13,44 31,13 37,6 37,-38 z M 460,445 c 0,-41 -2,-45 -25,-45 -22,0 -25,4 -25,38 0,43 5,52 32,52 15,0 18,-8 18,-45 z m -192,-7 c -2,-36 -7,-44 -25,-46 -21,-3 -23,1 -23,42 0,43 2,46 26,46 23,0 25,-3 22,-42 z m 90,-1 c 3,-32 0,-37 -17,-37 -18,0 -21,6 -21,41 0,33 3,40 18,37 12,-2 18,-14 20,-41 z M 458,283 c 3,-62 2,-63 -23,-63 -24,0 -25,2 -25,66 0,62 1,65 23,62 20,-3 22,-9 25,-65 z m 100,5 c -2,-52 -6,-63 -22,-66 -26,-5 -36,15 -36,76 0,51 0,52 30,52 h 31 z m -278,-1 c 0,-58 -12,-77 -47,-77 -22,0 -23,4 -23,65 v 65 h 35 35 z m 80,-7 c 0,-53 -2,-60 -20,-60 -18,0 -20,7 -20,60 0,53 2,60 20,60 18,0 20,-7 20,-60 z"
         id="path4"
         style="fill:#ff320a;fill-opacity:1" />
    </g>
  </g>
</svg>
