<?xml version="1.0" encoding="UTF-8" standalone="no"?>
<!-- Created with Inkscape (http://www.inkscape.org/) -->

<svg
   xmlns:dc="http://purl.org/dc/elements/1.1/"
   xmlns:cc="http://creativecommons.org/ns#"
   xmlns:rdf="http://www.w3.org/1999/02/22-rdf-syntax-ns#"
   xmlns:svg="http://www.w3.org/2000/svg"
   xmlns="http://www.w3.org/2000/svg"
   xmlns:sodipodi="http://sodipodi.sourceforge.net/DTD/sodipodi-0.dtd"
   xmlns:inkscape="http://www.inkscape.org/namespaces/inkscape"
   width="300"
   height="300"
   id="svg2"
   version="1.1"
   inkscape:version="0.48.3.1 r9886"
   sodipodi:docname="Nouveau document 1">
  <defs
     id="defs4" />
  <sodipodi:namedview
     id="base"
     pagecolor="#ffffff"
     bordercolor="#666666"
     borderopacity="1.0"
     inkscape:pageopacity="0.0"
     inkscape:pageshadow="2"
     inkscape:zoom="1.4"
     inkscape:cx="190.49845"
     inkscape:cy="230.00299"
     inkscape:document-units="px"
     inkscape:current-layer="layer1"
     showgrid="false"
     inkscape:window-width="1215"
     inkscape:window-height="1000"
     inkscape:window-x="65"
     inkscape:window-y="24"
     inkscape:window-maximized="1" />
  <metadata
     id="metadata7">
    <rdf:RDF>
      <cc:Work
         rdf:about="">
        <dc:format>image/svg+xml</dc:format>
        <dc:type
           rdf:resource="http://purl.org/dc/dcmitype/StillImage" />
        <dc:title></dc:title>
      </cc:Work>
    </rdf:RDF>
  </metadata>
  <g
     inkscape:label="Calque 1"
     inkscape:groupmode="layer"
     id="layer1"
     transform="translate(0,-752.36218)">
    <path
       style="fill:#000000"
       d="m 110.21665,1020.6404 c 0,-2.1969 6.4665,-10.254 14.37003,-17.9048 l 14.37,-13.91051 -12.10283,-6.79236 c -14.38912,-8.07548 -30.950635,-33.23328 -25.61753,-38.91437 2.50833,-2.672 6.43791,0.15831 14.63665,10.54216 8.11617,10.27926 13.51428,14.19483 19.56952,14.19483 16.31824,0 13.73759,-16.17034 -4.1479,-25.99085 -8.64876,-4.74885 -10.61056,-7.83314 -11.37314,-17.88056 -0.74888,-9.86663 0.60789,-13.46523 7.24062,-19.20474 4.48923,-3.88461 10.71043,-7.06295 13.82494,-7.06295 7.26069,0 7.15473,-3.69246 -0.40945,-14.2712 -3.3397,-4.67067 -6.07219,-13.04192 -6.07219,-18.60276 0,-13.99302 -5.04497,-27.24526 -10.37198,-27.24526 -2.44755,0 -4.9958,1.12724 -5.66279,2.50497 -1.72612,3.56557 2.44533,44.7757 5.24029,51.76933 3.70549,9.27199 -6.43681,7.26404 -12.20226,-2.41576 -3.75495,-6.30436 -4.42307,-12.23674 -2.82117,-25.04968 2.37459,-18.9932 -1.2665,-22.05499 -9.59636,-8.06966 -4.156429,6.97844 -5.329212,17.81476 -5.873923,54.27429 -0.96113,64.33177 -10.290766,104.00418 -24.458292,104.00418 -5.198511,0 -5.228793,-6.6543 -0.06887,-15.12158 9.099104,-14.93128 12.131348,-43.44472 10.010055,-94.12891 -1.733915,-41.42871 -1.322213,-50.55899 2.552138,-56.59786 5.553584,-8.6563 37.811062,-33.36056 45.759052,-35.0444 4.04334,-0.85663 6.5716,-5.9531 8.87283,-17.88606 3.74422,-19.41534 11.38073,-22.88466 13.8017,-6.27021 2.04374,14.02562 15.93353,26.02555 36.43309,31.47598 22.42381,5.96206 38.62306,15.0409 40.89636,22.92026 1.02775,3.56233 0.26353,16.61645 -1.69818,29.0092 -5.0181,31.70019 -1.96013,91.16998 5.99537,116.59394 7.36249,23.52884 7.8479,28.78274 2.44873,26.50354 -5.61121,-2.3687 -20.40589,-36.54806 -24.89826,-57.52099 -2.88534,-13.47044 -3.03849,-27.57494 -0.64585,-59.47971 3.62787,-48.37677 5.20364,-44.63084 -26.65231,-63.35884 -11.68895,-6.8719 -23.41136,-13.9693 -26.0498,-15.77198 -3.413,-2.33192 -7.119,-1.60404 -12.8441,2.52264 -6.46378,4.65911 -7.45806,7.0107 -5.05382,11.95273 1.64623,3.38387 4.35205,7.0764 6.01292,8.2056 1.66087,1.12922 3.0249,8.35211 3.03112,16.05084 0.0125,15.81218 7.83538,32.1605 21.39402,44.7112 6.72519,6.22524 8.95553,11.15521 8.95553,19.79538 0,9.60886 -1.75177,12.64261 -10.62632,18.40276 -10.51671,6.82604 -14.59054,19.8477 -7.6794,24.54652 4.85378,3.3 19.93109,-7.16309 29.79186,-20.67441 10.79181,-14.78702 13.84952,-13.77581 9.59538,3.17336 -3.81992,15.21922 -17.027,27.67997 -32.18511,30.36629 -9.91827,1.75776 -12.71779,4.2567 -18.67685,16.6716 -8.8669,18.47301 -37.01356,37.46801 -37.01356,24.97881 z m 52.80858,-93.69953 c 4.25921,-7.48026 -0.75702,-17.11173 -9.67481,-18.57616 -13.56774,-2.22809 -29.37488,18.71146 -18.08602,23.95837 7.76656,3.60976 24.48665,0.36812 27.76083,-5.38221 z m 16.57578,-33.44926 c -6.08961,-5.94286 -12.57926,-15.91413 -14.42143,-22.15841 -3.83164,-12.98798 -4.44769,-30.42089 -1.07231,-30.34508 6.14401,0.13794 9.95469,6.74828 13.05349,22.64361 2.22521,11.41426 6.45581,20.79801 12.25077,27.17295 15.72495,17.29877 7.47698,19.55775 -9.81052,2.68693 z"
       id="path2996"
       inkscape:connector-curvature="0" />
  </g>
</svg>
