<?xml version="1.0" encoding="UTF-8" standalone="no"?>
<!-- Created with Inkscape (http://www.inkscape.org/) -->

<svg
   xmlns:dc="http://purl.org/dc/elements/1.1/"
   xmlns:cc="http://creativecommons.org/ns#"
   xmlns:rdf="http://www.w3.org/1999/02/22-rdf-syntax-ns#"
   xmlns:svg="http://www.w3.org/2000/svg"
   xmlns="http://www.w3.org/2000/svg"
   xmlns:sodipodi="http://sodipodi.sourceforge.net/DTD/sodipodi-0.dtd"
   xmlns:inkscape="http://www.inkscape.org/namespaces/inkscape"
   width="300"
   height="300"
   id="svg2"
   version="1.1"
   inkscape:version="0.48.3.1 r9886"
   sodipodi:docname="粵-.svg">
  <defs
     id="defs4" />
  <sodipodi:namedview
     id="base"
     pagecolor="#ffffff"
     bordercolor="#666666"
     borderopacity="1.0"
     inkscape:pageopacity="0.0"
     inkscape:pageshadow="2"
     inkscape:zoom="1.979899"
     inkscape:cx="173.40817"
     inkscape:cy="124.24111"
     inkscape:document-units="px"
     inkscape:current-layer="layer1"
     showgrid="false"
     inkscape:window-width="1215"
     inkscape:window-height="1000"
     inkscape:window-x="65"
     inkscape:window-y="24"
     inkscape:window-maximized="1" />
  <metadata
     id="metadata7">
    <rdf:RDF>
      <cc:Work
         rdf:about="">
        <dc:format>image/svg+xml</dc:format>
        <dc:type
           rdf:resource="http://purl.org/dc/dcmitype/StillImage" />
        <dc:title></dc:title>
      </cc:Work>
    </rdf:RDF>
  </metadata>
  <g
     inkscape:label="Calque 1"
     inkscape:groupmode="layer"
     id="layer1"
     transform="translate(0,-752.36218)">
    <path
       style="fill:#000000"
       d="m 119.14208,1029.7787 c 0,-6.8952 17.618,-26.9057 29.0811,-33.03012 13.49225,-7.20857 14.14062,-17.7752 1.21471,-19.79659 -11.55562,-1.80709 -16.8157,-7.47646 -16.8157,-18.1241 0,-7.78038 -1.62232,-9.0212 -11.79509,-9.0212 -6.4873,0 -11.7951,-1.64161 -11.7951,-3.6481 0,-9.66024 55.83121,-17.49222 72.45557,-10.16401 6.65598,2.93404 6.65845,3.03872 0.1985,8.39161 -3.5979,2.98127 -13.18732,5.4205 -21.30976,5.4205 -12.24397,0 -14.57708,1.13492 -13.65049,6.64007 0.77146,4.58332 4.88071,6.99525 13.26645,7.78676 9.13992,0.86271 13.09758,3.49119 15.97959,10.61295 6.2389,15.41681 4.5896,19.9033 -10.49181,28.54093 -7.87744,4.5117 -19.5968,13.0837 -26.04302,19.0488 -11.71573,10.8412 -20.29485,13.945 -20.29485,7.3425 z m 110.07597,-41.98465 c -13.02424,-17.42723 -19.08523,-46.90744 -19.08523,-92.82893 0,-58.56586 -9.93455,-76.64514 -30.32947,-55.19475 -5.74972,6.04729 -13.40986,12.05131 -17.02253,13.34229 -12.2006,4.35987 -6.67534,9.42451 10.2817,9.42451 9.32857,0 16.85012,1.74686 16.85012,3.91339 0,4.29123 -1.81577,5.19257 -22.39082,11.11464 -10.60075,3.05118 -14.47322,6.29612 -16.07183,13.46747 -2.69666,12.09712 -7.99552,12.08042 -12.08774,-0.0379 -2.99218,-8.86086 -13.48012,-13.60123 -13.48012,-6.09278 0,7.28035 -19.93643,26.96157 -27.311226,26.96157 -7.194868,0 -6.803135,-1.0997 5.406066,-15.1773 12.15823,-14.01887 12.57487,-15.17732 5.45813,-15.17732 -12.342026,0 -6.43848,-9.11412 8.27792,-12.77974 7.2733,-1.81168 15.1198,-3.89242 17.43669,-4.62385 2.65534,-0.83827 4.21254,-8.38683 4.21254,-20.42061 0,-20.9939 4.05818,-24.39111 11.089,-9.28285 l 4.5642,9.80783 10.64636,-10.08623 10.64638,-10.08623 -14.26044,-12.24866 -14.26043,-12.2487 -23.5902,15.55755 c -31.550416,20.80725 -35.500298,30.11788 -39.070507,92.09685 -3.311817,57.49294 -4.907797,66.45088 -13.376571,75.07998 -8.738924,8.90434 -11.533921,4.83424 -6.918029,-10.07401 2.067813,-6.67858 3.774489,-33.65803 3.792598,-59.95432 0.03042,-42.21534 0.959267,-50.03203 7.9474,-66.78311 9.34963,-22.41173 14.808899,-28.3475 38.227299,-41.56393 10.5265,-5.94074 19.32039,-14.04129 21.95059,-20.21989 5.47832,-12.8693 9.83522,-12.91913 15.26046,-0.17455 4.2339,9.94593 25.04264,22.11793 37.8119,22.11793 11.28617,0 23.60903,8.45977 30.43401,20.8932 5.72894,10.43667 6.52319,18.39122 6.0915,61.00633 -0.52121,51.44884 5.0802,86.80327 15.6357,98.68776 2.87079,3.23223 5.21964,7.46225 5.21964,9.40009 0,7.35454 -9.845,3.07629 -17.98506,-7.81558 z M 112.40204,921.15562 c 0,-4.22044 23.71336,-13.08653 35.00139,-13.08653 16.99522,0 23.39283,3.41653 18.59241,9.92891 -2.65394,3.60044 -11.67539,5.24839 -28.73127,5.24839 -13.67438,0 -24.86253,-0.94083 -24.86253,-2.09077 z m 65.5985,-20.44597 c -8.94174,-4.13984 -16.23382,-14.1336 -12.30666,-16.86628 4.6113,-3.20878 31.33981,9.65786 29.9347,14.41006 -1.59305,5.38784 -9.05134,6.42706 -17.62804,2.45622 z m -67.09245,-46.60541 c -6.51698,-10.47576 -6.63319,-14.33303 -0.43179,-14.33303 6.20732,0 15.40583,10.35664 15.40583,17.34549 0,8.28135 -9.08519,6.45362 -14.97404,-3.01246 z"
       id="path3028"
       inkscape:connector-curvature="0" />
  </g>
</svg>
