<?xml version="1.0" encoding="UTF-8" standalone="no"?>
<svg
   xmlns:dc="http://purl.org/dc/elements/1.1/"
   xmlns:cc="http://creativecommons.org/ns#"
   xmlns:rdf="http://www.w3.org/1999/02/22-rdf-syntax-ns#"
   xmlns:svg="http://www.w3.org/2000/svg"
   xmlns="http://www.w3.org/2000/svg"
   version="1.1"
   id="svg4427"
   width="300"
   height="300"
   viewBox="0 0 300 300">
  <metadata
     id="metadata4433">
    <rdf:RDF>
      <cc:Work
         rdf:about="">
        <dc:format>image/svg+xml</dc:format>
        <dc:type
           rdf:resource="http://purl.org/dc/dcmitype/StillImage" />
        <dc:title></dc:title>
      </cc:Work>
    </rdf:RDF>
  </metadata>
  <defs
     id="defs4431" />
  <path
     style="fill:#000000;stroke-width:0.72547948"
     d="m 171.79933,264.20564 c -10.19866,-17.19557 -4.63467,-55.87563 -22.23052,-65.52698 -1.58613,-0.80918 -2.97867,-1.36685 -3.09455,-1.23926 -0.11586,0.1276 -2.89557,5.60589 -6.17713,12.17398 -9.34768,17.57711 -20.22501,35.21859 -34.24429,48.63085 C 80.996475,278.57264 63.863988,283.4796 38.864951,269.7646 6.7655919,249.77119 11.969784,208.74389 7.1063987,178.29739 6.0271566,172.0435 6.1702066,164.64824 7.4077795,162.71721 23.973633,152.62256 26.498032,186.4162 28.496334,194.3824 c 6.805476,1.32938 16.454137,1.65138 24.198389,2.66865 3.47031,-12.087 4.640906,-18.62982 6.243242,-28.39884 C 27.552531,153.06023 15.237188,141.44234 12.175442,107.977 c -0.309047,-8.565669 9.320737,-8.69836 11.925365,-6.14232 5.414104,20.51954 20.191309,41.58482 36.756184,45.16568 4.060371,0.55653 5.617352,-0.62613 7.234657,-5.49538 1.89978,-5.7197 1.165034,-7.2009 -7.696776,-15.51607 -12.874988,-9.61183 -12.27659,-35.954755 -19.16983,-45.482513 -11.623089,-0.385744 -26.208994,-0.03242 -29.157315,-3.403464 -1.173823,-1.587883 -1.173823,-8.32398 0,-9.767815 34.144511,-17.021615 76.888646,-16.21941 109.728773,-14.206262 11.97383,3.018302 17.14197,3.221576 15.23508,15.166147 -7.26901,3.71393 -13.44122,5.28997 -18.16669,8.736959 -7.58123,13.894305 -9.48987,37.074328 -19.909134,47.671388 -9.895863,9.30778 -10.326277,12.28019 -11.761106,23.57766 14.21201,7.37646 29.23793,-7.65235 38.95933,-5.93028 1.28151,1.79939 3.36861,6.37458 3.16637,6.94108 -12.75371,15.75578 -31.514938,19.48347 -49.874231,23.60577 -1.862123,8.09795 -3.853804,18.58132 -5.456603,26.18725 10.84254,1.60947 43.816894,3.9938 48.810004,4.63403 5.44946,-5.9902 10.52321,-12.24311 15.42636,-18.65669 -0.60981,-4.67192 -3.38112,-12.03943 -1.04982,-15.15988 4.07352,-2.49661 9.75614,-3.2485 13.79716,-0.0734 3.69144,3.08788 7.07354,3.40793 17.97945,1.70141 15.3538,-2.40254 11.85114,-1.60212 15.88638,-7.7035 9.35887,-14.59758 19.70503,-31.5416 26.47768,-44.59692 -8.59925,-14.28732 -14.30094,-24.689864 -22.96823,-39.400362 -8.42923,-14.245484 -11.10563,-21.9095 -18.11435,-24.29761 -12.58829,0.840696 -17.25703,3.507411 -21.95764,-8.692816 0,-6.529874 1.60495,-7.703938 12.44616,-9.10471 3.32945,-0.430193 13.64008,-2.139561 22.91249,-3.798595 23.52364,-1.864561 49.31622,-3.825704 72.99478,-2.341174 28.83711,1.807948 27.68037,1.492175 31.22236,8.523228 3.32209,9.632919 4.49047,30.771588 -7.38805,20.007433 -10.68939,-7.349733 -15.23451,-11.890895 -26.81168,-9.300041 -0.80976,8.927182 4.76508,14.968373 9.4009,21.877962 -9.46093,16.999361 -21.36069,34.479685 -29.80625,48.967795 7.83113,13.74081 22.78523,40.93938 27.93576,49.6125 7.41702,0.32133 18.40278,1.45489 24.37893,2.06217 6.76743,2.7024 13.48332,11.20614 1.31298,42.46272 -9.78619,25.13347 -25.97463,48.36697 -47.56857,63.09682 -23.82325,13.28462 -58.55066,1.64491 -67.50699,-14.69956 z m 63.57506,-9.33908 c 8.60552,-5.8842 10.16072,-8.69273 12.78196,-17.43733 -11.47492,1.55403 -41.90631,2.89024 -61.42943,5.58037 8.67416,21.95015 36.04816,20.55666 48.64747,11.85696 z M 108.04284,227.24514 c 7.6934,-13.58347 -3.38803,-11.56088 -11.215916,-11.8618 -25.710263,-0.15229 -42.954549,5.18094 -63.992445,3.55624 -0.641724,23.79961 13.549635,31.40997 28.74722,34.20608 24.286434,-2.54686 33.845435,-8.01696 46.461141,-25.90052 z m 157.84313,-12.52499 c 3.24047,-3.0886 12.29759,-20.6415 10.31929,-22.15937 -30.62179,-0.36058 -71.58664,1.13946 -97.49345,3.46173 2.14089,8.88606 2.24159,18.31519 3.13703,25.59707 27.10157,-1.57036 60.91519,-6.89943 84.03713,-6.89943 z m -38.09208,-45.06131 c 4.03259,-3.30679 6.48775,-7.62575 5.78266,-12.97705 -0.62006,-4.11605 -5.30785,-12.84027 -8.00478,-14.89734 -4.61054,-3.51662 -5.04656,-3.26523 -14.83332,8.55267 -5.34414,4.01246 -13.12813,19.31982 -5.28155,20.16044 7.4988,1.04894 16.57358,3.13989 22.33699,-0.83872 z M 96.69393,74.731794 c -14.249733,-0.332645 -24.739229,0.09214 -40.3665,2.531196 2.413542,9.574465 17.94367,39.74095 24.799827,39.6125 C 91.08954,108.5466 96.723954,89.215508 96.69393,74.731794 Z M 245.53954,62.964796 c -3.13343,-6.844323 -15.65725,-14.615683 -24.72075,-14.694694 -10.46108,1.124402 -15.68979,5.374143 -22.57711,11.56019 9.27038,17.367072 11.65318,21.216608 22.51571,39.632746 7.90571,-12.340059 17.80718,-26.053532 24.78215,-36.498242 z M 34.474765,40.361083 c -4.995816,-8.187344 -2.72853,-11.862613 2.491475,-14.897596 23.369237,-7.422621 55.043966,-12.448426 74.25688,-9.067021 7.2029,1.281846 9.22159,2.214449 12.2436,5.656324 2.19544,2.500466 3.63493,6.854785 2.74314,8.297738 -26.03028,2.478319 -47.499821,6.526586 -70.278372,9.509981 -13.482506,1.730397 -20.303984,1.889539 -21.456723,0.500574 z"
     id="path4437" />
</svg>
