<?xml version="1.0" encoding="UTF-8" standalone="no"?>
<!-- Created with Inkscape (http://www.inkscape.org/) -->

<svg
   xmlns:dc="http://purl.org/dc/elements/1.1/"
   xmlns:cc="http://creativecommons.org/ns#"
   xmlns:rdf="http://www.w3.org/1999/02/22-rdf-syntax-ns#"
   xmlns:svg="http://www.w3.org/2000/svg"
   xmlns="http://www.w3.org/2000/svg"
   xmlns:sodipodi="http://sodipodi.sourceforge.net/DTD/sodipodi-0.dtd"
   xmlns:inkscape="http://www.inkscape.org/namespaces/inkscape"
   width="350"
   height="350"
   id="svg2"
   version="1.1"
   inkscape:version="0.92.2 5c3e80d, 2017-08-06"
   sodipodi:docname="icon.svg"
   inkscape:export-filename="/Users/aaron/Documents/Github/jyut-dict/src/jyut-dict/resources/icon/variant_3/icon_16x16.png"
   inkscape:export-xdpi="4.3885713"
   inkscape:export-ydpi="4.3885713">
  <defs
     id="defs4" />
  <sodipodi:namedview
     id="base"
     pagecolor="#ffffff"
     bordercolor="#666666"
     borderopacity="1.0"
     inkscape:pageopacity="0.0"
     inkscape:pageshadow="2"
     inkscape:zoom="2.2203153"
     inkscape:cx="143.53379"
     inkscape:cy="196.58933"
     inkscape:document-units="px"
     inkscape:current-layer="layer1"
     showgrid="false"
     inkscape:window-width="1878"
     inkscape:window-height="1155"
     inkscape:window-x="42"
     inkscape:window-y="1"
     inkscape:window-maximized="1"
     showguides="true"
     inkscape:guide-bbox="true"
     inkscape:snap-global="false" />
  <metadata
     id="metadata7">
    <rdf:RDF>
      <cc:Work
         rdf:about="">
        <dc:format>image/svg+xml</dc:format>
        <dc:type
           rdf:resource="http://purl.org/dc/dcmitype/StillImage" />
        <dc:title></dc:title>
      </cc:Work>
    </rdf:RDF>
  </metadata>
  <g
     inkscape:label="Calque 1"
     inkscape:groupmode="layer"
     id="layer1"
     transform="translate(0,-702.36218)">
    <rect
       style="fill:#cc0001;fill-opacity:1;stroke:#ffffff;stroke-width:0.99667782;stroke-opacity:1"
       id="rect4781"
       width="299.0033"
       height="299.00333"
       x="25.498339"
       y="727.86053"
       ry="34.883724" />
    <rect
       style="fill:#ffffff;fill-opacity:1;stroke:#ffffff;stroke-width:0.89701009;stroke-opacity:1"
       id="rect4799"
       width="269.103"
       height="269.103"
       x="40.448505"
       y="742.81073"
       ry="31.395355" />
    <rect
       ry="29.069769"
       y="752.77747"
       x="50.415283"
       height="249.16943"
       width="249.16943"
       id="rect883"
       style="fill:#cc0001;fill-opacity:1;stroke:#ffffff;stroke-width:0.83056486;stroke-opacity:1" />
    <path
       style="fill:#ffffff;fill-opacity:1;stroke-width:0.52427691"
       d="m 215.05339,889.1441 c 0,-3.35017 9.96683,-13.07267 16.45174,-16.04835 7.63283,-3.50241 7.99965,-8.63645 0.68718,-9.61859 -6.53721,-0.878 -9.51296,-3.63257 -9.51296,-8.80594 0,-3.78025 -0.9178,-4.38314 -6.67271,-4.38314 -3.67001,0 -6.67273,-0.7976 -6.67273,-1.77249 0,-4.69362 31.58483,-8.49894 40.98955,-4.9384 3.76542,1.42557 3.76682,1.47644 0.11229,4.07724 -2.03539,1.44851 -7.46034,2.63365 -12.05534,2.63365 -6.92665,0 -8.24655,0.55145 -7.72237,3.22623 0.43642,2.22688 2.76111,3.39878 7.50508,3.78336 5.17066,0.41915 7.40958,1.69625 9.03998,5.1565 3.52945,7.49057 2.59643,9.67042 -5.93542,13.86719 -4.45641,2.19209 -11.0863,6.35698 -14.73305,9.25523 -6.6278,5.26742 -11.48119,6.77546 -11.48119,3.56751 z m 62.27215,-20.39908 c -7.36809,-8.46738 -10.79691,-22.79093 -10.79691,-45.10279 0,-28.4554 -5.62018,-37.23961 -17.15798,-26.81749 -3.25274,2.93819 -7.58622,5.85537 -9.62998,6.48262 -6.90209,2.11833 -3.77636,4.57908 5.81655,4.57908 5.27736,0 9.53245,0.84875 9.53245,1.90141 0,2.08496 -1.02722,2.52291 -12.66691,5.40026 -5.99706,1.48248 -8.18778,3.05911 -9.09217,6.54345 -1.52553,5.87762 -4.52321,5.86951 -6.83827,-0.0185 -1.69271,-4.30522 -7.62596,-6.60843 -7.62596,-2.96029 0,3.5373 -11.27843,13.09981 -15.4505,13.09981 -4.07028,0 -3.84867,-0.53431 3.05833,-7.37419 6.87816,-6.81134 7.11384,-7.3742 3.08775,-7.3742 -6.98212,0 -3.64237,-4.42829 4.683,-6.20929 4.11465,-0.88024 8.55355,-1.89121 9.86426,-2.24661 1.5022,-0.40726 2.38312,-4.07489 2.38312,-9.92174 0,-10.20031 2.2958,-11.85093 6.27329,-4.51026 l 2.58203,4.76532 6.02286,-4.9006 6.02287,-4.9006 -8.06741,-5.95125 -8.06741,-5.95127 -13.34543,7.55894 c -17.84869,10.10963 -20.08323,14.63339 -22.10293,44.7471 -1.87358,27.93411 -2.77646,32.2865 -7.56742,36.47913 -4.94378,4.32635 -6.52496,2.3488 -3.91366,-4.89466 1.1698,-3.24493 2.13531,-16.35343 2.14555,-29.13002 0.0172,-20.51117 0.54267,-24.30906 4.49599,-32.44792 5.28927,-10.88917 8.3777,-13.7732 21.62594,-20.19465 5.95504,-2.88645 10.92994,-6.82226 12.41788,-9.82425 3.09919,-6.25281 5.56395,-6.27702 8.63316,-0.0848 2.39519,4.83243 14.16708,10.74644 21.39092,10.74644 6.38483,0 13.35609,4.11035 17.21712,10.15138 3.24097,5.07085 3.6903,8.93575 3.44607,29.64115 -0.29485,24.99746 2.87397,42.17511 8.84543,47.94943 1.62407,1.57047 2.95285,3.6257 2.95285,4.56722 0,3.57338 -5.5695,1.49468 -10.17448,-3.79734 z M 211.24041,836.3674 c 0,-2.05059 13.41513,-6.35836 19.80098,-6.35836 9.61452,0 13.2338,1.65999 10.51807,4.82416 -1.50137,1.74935 -6.60498,2.55004 -16.25384,2.55004 -7.73587,0 -14.06521,-0.45712 -14.06521,-1.01584 z m 37.11037,-9.93409 c -5.05853,-2.01143 -9.18381,-6.8671 -6.96213,-8.19483 2.6087,-1.55903 17.72955,4.69247 16.93466,7.00142 -0.90124,2.61779 -5.12052,3.12272 -9.97253,1.19341 z m -37.95553,-22.64417 c -3.68677,-5.08986 -3.75252,-6.964 -0.24428,-6.964 3.5116,0 8.71539,5.03199 8.71539,8.42765 0,4.02367 -5.13966,3.13562 -8.47111,-1.46365 z"
       id="path3028"
       inkscape:connector-curvature="0" />
    <path
       inkscape:connector-curvature="0"
       style="fill:#ffffff;fill-opacity:1;stroke-width:0.27363175"
       d="m 240.09714,981.40594 c -3.84901,-6.48184 -1.74915,-21.06201 -8.38988,-24.69987 -0.59862,-0.30507 -1.12419,-0.51545 -1.16791,-0.46732 -0.0437,0.0486 -1.09279,2.1132 -2.33126,4.58901 -3.52786,6.62558 -7.63301,13.27534 -12.92394,18.33098 -9.45637,7.6628 -15.92223,9.5124 -25.35695,4.3426 -12.11444,-7.5364 -10.15035,-23.00141 -11.98582,-34.47797 -0.4073,-2.3573 -0.35332,-5.14493 0.11374,-5.87284 6.25201,-3.80511 7.20473,8.93321 7.9589,11.93606 2.56843,0.50106 6.20985,0.62239 9.13258,1.00593 1.30972,-4.55612 1.75149,-7.02239 2.35622,-10.70488 -11.845,-5.87724 -16.49284,-10.25653 -17.64837,-22.87107 -0.11663,-3.22878 3.51769,-3.27879 4.50069,-2.31532 2.04331,7.73471 7.62027,15.67514 13.87193,17.02492 1.53239,0.20979 2.12001,-0.23601 2.73039,-2.07145 0.71697,-2.156 0.43968,-2.71431 -2.90482,-5.84868 -4.85904,-3.62311 -4.63322,-13.55291 -7.23476,-17.14433 -4.38658,-0.14541 -9.89137,-0.0122 -11.00408,-1.28292 -0.443,-0.59854 -0.443,-3.13767 0,-3.68192 12.88627,-6.41618 29.01808,-6.11381 41.41205,-5.35496 4.51899,1.13774 6.46945,1.21434 5.7498,5.71678 -2.74335,1.39995 -5.07276,1.99404 -6.85618,3.29335 -2.86118,5.23737 -3.5815,13.97491 -7.51377,17.9694 -3.73477,3.50852 -3.8972,4.62895 -4.4387,8.88746 5.36368,2.78051 11.03452,-2.88449 14.70339,-2.23536 0.48367,0.67824 1.27135,2.40285 1.19502,2.61637 -4.81331,5.93903 -11.89388,7.34423 -18.82274,8.89805 -0.70276,3.05251 -1.45443,7.00407 -2.05932,9.87107 4.09201,0.60679 16.53665,1.50536 18.42107,1.74678 2.05664,-2.25791 3.97151,-4.6148 5.82198,-7.03247 -0.23015,-1.76106 -1.27606,-4.53823 -0.39622,-5.71441 1.53735,-0.94111 3.68202,-1.22456 5.20711,-0.0275 1.39316,1.16396 2.66958,1.28458 6.78551,0.64141 5.79458,-0.90565 4.47267,-0.6039 5.99558,-2.90387 3.53206,-5.50243 7.43677,-11.88935 9.99278,-16.81048 -3.2454,-5.38552 -5.39723,-9.30667 -8.66831,-14.8517 -3.18122,-5.36974 -4.19132,-8.25865 -6.83642,-9.15884 -4.75086,0.3169 -6.51287,1.3221 -8.28692,-3.27668 0,-2.46141 0.60575,-2.90396 4.69725,-3.43198 1.25655,-0.16215 5.14783,-0.80649 8.64726,-1.43185 8.87792,-0.70282 18.61214,-1.44209 27.54851,-0.88248 10.88325,0.68148 10.44669,0.56244 11.78346,3.21277 1.25377,3.63107 1.6947,11.59914 -2.7883,7.54166 -4.03421,-2.77044 -5.74954,-4.48219 -10.11882,-3.50559 -0.30561,3.36505 1.79836,5.64224 3.54794,8.24676 -3.57059,6.40779 -8.06162,12.9969 -11.24901,18.4581 2.9555,5.1795 8.59924,15.43181 10.54306,18.70109 2.79924,0.12119 6.9453,0.54848 9.20071,0.7774 2.55407,1.01862 5.08866,4.224 0.49553,16.00586 -3.69334,9.47392 -9.80294,18.23163 -17.95257,23.78393 -8.99099,5.0074 -22.09724,0.62 -25.47739,-5.5409 z m 23.99347,-3.5204 c 3.24776,-2.2179 3.83469,-3.27653 4.82395,-6.57286 -4.33067,0.58583 -15.8156,1.0895 -23.18369,2.10358 3.27367,8.27388 13.60472,7.74878 18.35974,4.46928 z m -48.05543,-10.41161 c 2.90354,-5.12033 -1.27865,-4.35792 -4.23293,-4.47125 -9.70316,-0.0566 -16.2112,1.95291 -24.15101,1.34042 -0.24216,8.97125 5.1137,11.83994 10.84934,12.89364 9.16578,-0.9599 12.77339,-3.02173 17.5346,-9.76281 z m 59.57061,-4.72134 c 1.22298,-1.16416 4.64116,-7.78061 3.89455,-8.35273 -11.55677,-0.13584 -27.01708,0.42955 -36.79442,1.30495 0.80799,3.34946 0.84601,6.9037 1.18394,9.6487 10.22824,-0.59208 22.98963,-2.60092 31.71593,-2.60092 z m -14.3761,-16.98544 c 1.52192,-1.2465 2.44852,-2.87455 2.18241,-4.8916 -0.23401,-1.55154 -2.00319,-4.84011 -3.02103,-5.61549 -1.74003,-1.32556 -1.90459,-1.23079 -5.59817,3.22393 -2.01688,1.5124 -4.9546,7.28242 -1.99326,7.59932 2.83008,0.3954 6.25493,1.18357 8.43005,-0.31616 z m -49.47764,-35.78214 c -5.37791,-0.12539 -9.33666,0.0347 -15.23445,0.95412 0.91086,3.60902 6.77201,14.98009 9.35954,14.93168 3.75981,-3.13955 5.88624,-10.42627 5.87491,-15.8858 z m 56.17494,-4.43549 c -1.18257,-2.57991 -5.90913,-5.50932 -9.32971,-5.53908 -3.94806,0.42383 -5.92139,2.02575 -8.5207,4.35755 3.49868,6.5464 4.39795,7.99746 8.49753,14.93931 2.98362,-4.65154 6.72049,-9.82071 9.35288,-13.75778 z m -79.65668,-8.52035 c -1.88543,-3.08613 -1.02976,-4.47151 0.94029,-5.61553 8.81966,-2.7979 20.77381,-4.69239 28.02484,-3.41776 2.71842,0.4832 3.48026,0.83471 4.62078,2.13213 0.82857,0.94253 1.37184,2.58385 1.03526,3.12776 -9.82392,0.93419 -17.92663,2.46016 -26.52331,3.58473 -5.08836,0.65227 -7.66281,0.71226 -8.09786,0.18867 z"
       id="path4437" />
    <path
       style="fill:#ffffff;fill-opacity:1;stroke-width:0.55786932"
       d="m 91.435572,888.30741 c 0,-1.12028 3.946537,-5.22891 8.770098,-9.13036 l 8.77007,-7.09351 -7.38641,-3.46371 c -8.781746,-4.11801 -18.889307,-16.94696 -15.634485,-19.84392 1.530838,-1.36257 3.929076,0.0807 8.932804,5.37582 4.95334,5.24182 8.247821,7.2385 11.943371,7.2385 9.95909,0 8.38411,-8.24587 -2.53148,-13.25374 -5.278381,-2.42164 -6.475671,-3.99442 -6.941081,-9.11803 -0.45705,-5.03136 0.37099,-6.86642 4.418981,-9.79322 2.73979,-1.98092 6.53662,-3.60166 8.43742,-3.60166 4.43124,0 4.36656,-1.88295 -0.24988,-7.27746 -2.03824,-2.38175 -3.70589,-6.65058 -3.70589,-9.48628 0,-7.13558 -3.07897,-13.89342 -6.330071,-13.89342 -1.49375,0 -3.04896,0.57482 -3.45602,1.27737 -1.05346,1.81823 1.4924,22.8329 3.19817,26.39922 2.261481,4.72813 -3.92841,3.70422 -7.447091,-1.23189 -2.291663,-3.21484 -2.699418,-6.24001 -1.721777,-12.77383 1.449227,-9.68537 -0.772944,-11.2467 -5.856696,-4.11502 -2.536694,3.55858 -3.252446,9.08446 -3.584884,27.6766 -0.586579,32.80529 -6.280497,53.0358 -14.926995,53.0358 -3.172677,0 -3.191159,-3.39329 -0.04201,-7.71109 5.553224,-7.61406 7.403816,-22.15417 6.109182,-48.00003 -1.058217,-21.12611 -0.806954,-25.782 1.55758,-28.86147 3.389379,-4.41418 23.076251,-17.01184 27.926942,-17.8705 2.46768,-0.43684 4.01068,-3.0357 5.41513,-9.1208 2.28512,-9.90066 6.94571,-11.6698 8.42325,-3.19745 1.24729,7.15223 9.72429,13.27147 22.23524,16.05085 13.68536,3.0403 23.57183,7.66994 24.95922,11.68794 0.62724,1.81658 0.16085,8.47339 -1.03638,14.79293 -3.06258,16.16518 -1.19629,46.49116 3.65899,59.45585 4.49336,11.99824 4.78961,14.67742 1.49445,13.51517 -3.42453,-1.20789 -12.4538,-18.63731 -15.19549,-29.33221 -1.76095,-6.86909 -1.8544,-14.06152 -0.39417,-30.33103 2.21411,-24.66922 3.17581,-22.75903 -16.26602,-32.30918 -7.13381,-3.50425 -14.28804,-7.12349 -15.89829,-8.04274 -2.08298,-1.18913 -4.34476,-0.81796 -7.83882,1.2864 -3.94487,2.37586 -4.55168,3.57503 -3.08436,6.09516 1.0047,1.72557 2.65607,3.60854 3.66971,4.18435 1.01363,0.57584 1.84611,4.25908 1.84991,8.18497 0.008,8.06326 4.78196,16.3999 13.05685,22.79999 4.10441,3.17449 5.46561,5.68849 5.46561,10.09446 0,4.8999 -1.0691,6.44696 -6.4853,9.38426 -6.41839,3.4809 -8.90466,10.12112 -4.68677,12.51722 2.96228,1.68278 12.16403,-3.6527 18.18211,-10.5427 6.58628,-7.54047 8.45241,-7.02482 5.8561,1.61826 -2.33131,7.76085 -10.39164,14.11511 -19.64272,15.48497 -6.05316,0.8963 -7.76171,2.17065 -11.39856,8.5015 -5.41151,9.42011 -22.589531,19.1064 -22.58953,12.73766 z m 32.229308,-47.78105 c 2.59942,-3.8145 -0.46201,-8.72596 -5.90458,-9.47274 -8.28045,-1.13618 -17.927611,9.54174 -11.03797,12.21734 4.73996,1.84072 14.94431,0.1877 16.94255,-2.7446 z m 10.11628,-17.05711 c -3.71652,-3.03049 -7.67717,-8.11523 -8.80147,-11.29944 -2.33846,-6.62308 -2.71444,-15.5128 -0.65443,-15.47415 3.74971,0.0703 6.07539,3.44122 7.9666,11.54687 1.35806,5.82059 3.94,10.60572 7.47669,13.85656 9.59702,8.8213 4.56324,9.97325 -5.98739,1.37016 z"
       id="path2996"
       inkscape:connector-curvature="0" />
    <g
       style="fill:#ffffff;fill-opacity:1;stroke:none"
       transform="matrix(0.18678586,0,0,-0.16877614,49.02831,993.61054)"
       id="g6">
      <path
         inkscape:connector-curvature="0"
         d="m 367,634 c -4,-4 -7,-27 -7,-51 0,-37 -3,-44 -17,-41 -12,2 -19,14 -21,33 -2,17 -8,34 -12,39 -16,16 -40,-15 -40,-51 0,-30 -3,-34 -22,-31 -16,2 -24,12 -29,36 -8,40 -14,46 -33,39 -12,-5 -15,-39 -16,-193 0,-103 -3,-190 -5,-194 -3,-4 -18,-10 -35,-13 -21,-5 -30,-12 -30,-27 0,-19 6,-20 95,-20 h 95 V 130 C 290,93 274,85 190,76 121,69 98,58 118,38 c 9,-9 29,-9 89,1 97,15 126,35 133,87 5,37 7,39 41,42 38,3 49,-10 49,-65 0,-34 31,-44 128,-41 79,3 87,5 87,23 0,18 -7,20 -60,21 -106,1 -105,1 -105,33 v 28 l 84,7 c 95,7 116,13 116,31 0,15 -22,25 -57,25 h -25 l 7,193 c 6,172 6,194 -9,206 -21,18 -25,13 -34,-40 -6,-34 -12,-44 -27,-44 -15,0 -21,9 -26,38 -7,44 -13,52 -34,44 -10,-4 -15,-20 -15,-47 0,-36 -3,-40 -24,-40 -23,0 -25,5 -28,47 -2,34 -8,49 -18,51 -9,1 -19,0 -23,-4 z M 560,455 c 0,-41 -2,-45 -25,-45 -22,0 -25,4 -25,39 0,22 5,42 13,44 31,13 37,6 37,-38 z M 460,445 c 0,-41 -2,-45 -25,-45 -22,0 -25,4 -25,38 0,43 5,52 32,52 15,0 18,-8 18,-45 z m -192,-7 c -2,-36 -7,-44 -25,-46 -21,-3 -23,1 -23,42 0,43 2,46 26,46 23,0 25,-3 22,-42 z m 90,-1 c 3,-32 0,-37 -17,-37 -18,0 -21,6 -21,41 0,33 3,40 18,37 12,-2 18,-14 20,-41 z M 458,283 c 3,-62 2,-63 -23,-63 -24,0 -25,2 -25,66 0,62 1,65 23,62 20,-3 22,-9 25,-65 z m 100,5 c -2,-52 -6,-63 -22,-66 -26,-5 -36,15 -36,76 0,51 0,52 30,52 h 31 z m -278,-1 c 0,-58 -12,-77 -47,-77 -22,0 -23,4 -23,65 v 65 h 35 35 z m 80,-7 c 0,-53 -2,-60 -20,-60 -18,0 -20,7 -20,60 0,53 2,60 20,60 18,0 20,-7 20,-60 z"
         id="path4"
         style="fill:#ffffff;fill-opacity:1" />
    </g>
  </g>
</svg>
